<svg width="187" height="25" viewBox="0 0 187 25" fill="none" xmlns="http://www.w3.org/2000/svg">
<g clip-path="url(#clip0_2423_290)">
<g filter="url(#filter0_d_2423_290)">
<path d="M186.738 20C186.738 22.4853 184.724 24.5 182.238 24.5H1.73828L2.73828 23.5H182.238C184.171 23.5 185.738 21.933 185.738 20H186.738ZM1.73828 24.5V0H2.73828V23.5L1.73828 24.5ZM186.738 0V20C186.738 22.4853 184.724 24.5 182.238 24.5V23.5C184.171 23.5 185.738 21.933 185.738 20V0H186.738Z" fill="black"/>
<path d="M4.48 0H0V12.8H4.48V0Z" fill="black"/>
<path d="M13.4409 0H8.96094V12.8H13.4409V0Z" fill="black"/>
<path d="M22.4019 0H17.9219V12.8H22.4019V0Z" fill="black"/>
<path d="M11.6016 4.7998H10.6016V23.9998H11.6016V4.7998Z" fill="black"/>
<path d="M2.56188 4.7998H1.92188V23.9998H2.56188V4.7998Z" fill="black"/>
<path d="M20.6992 4.7998H19.6992V23.9998H20.6992V4.7998Z" fill="black"/>
<path d="M33.7202 10.0671C34.8021 11.0386 35.9171 12.0543 35.9171 13.5888C35.9171 15.1675 34.7138 16.3599 33.1351 16.3599C31.6005 16.3599 30.353 15.1234 30.353 13.5888C30.353 13.5115 30.4192 13.4453 30.4965 13.4453H31.3687C31.4459 13.4453 31.5122 13.5115 31.5122 13.5888C31.5122 14.4831 32.2408 15.2007 33.1351 15.2007C34.0735 15.2007 34.7469 14.5272 34.7469 13.5888C34.7469 12.5621 33.8747 11.7672 32.9363 10.9282C31.9096 9.98974 30.8387 9.01822 30.8387 7.6051C30.8387 6.30238 31.8213 5.31982 33.1351 5.31982C34.3936 5.31982 35.4314 6.34654 35.4314 7.6051C35.4314 7.68238 35.3541 7.74862 35.2768 7.74862H34.4157C34.3274 7.74862 34.2611 7.68238 34.2611 7.6051C34.2611 6.98686 33.7533 6.47902 33.1351 6.47902C32.4616 6.47902 32.009 6.93166 32.009 7.6051C32.009 8.51038 32.837 9.2611 33.7202 10.0671ZM40.1953 9.50398C41.6416 9.50398 42.8228 10.6853 42.8228 12.1426V16.1943C42.8228 16.2826 42.7456 16.3599 42.6572 16.3599H41.8292C41.7409 16.3599 41.6747 16.2826 41.6747 16.1943V11.988C41.6747 11.1821 41.0123 10.5087 40.1953 10.5087C39.3784 10.5087 38.716 11.1821 38.716 11.988V16.1943C38.716 16.2826 38.6497 16.3599 38.5614 16.3599H37.7224C37.634 16.3599 37.5678 16.2826 37.5678 16.1943V5.48542C37.5678 5.3971 37.634 5.31982 37.7224 5.31982H38.5614C38.6497 5.31982 38.716 5.3971 38.716 5.48542V9.96766C39.1355 9.68062 39.6433 9.50398 40.1953 9.50398ZM46.287 9.50398C46.3643 9.50398 46.4305 9.43774 46.4305 9.34942V8.47726C46.4305 8.39998 46.3643 8.3227 46.287 8.3227H45.4148C45.3265 8.3227 45.2603 8.39998 45.2603 8.47726V9.34942C45.2603 9.43774 45.3265 9.50398 45.4148 9.50398H46.287ZM46.4305 16.1943C46.4305 16.2826 46.3643 16.3599 46.2759 16.3599H45.4148C45.3265 16.3599 45.2492 16.2826 45.2492 16.1943V10.8288C45.2492 10.7405 45.3265 10.6743 45.4148 10.6743H46.2759C46.3643 10.6743 46.4305 10.7405 46.4305 10.8288V16.1943ZM51.5274 9.51502C52.9737 9.51502 54.155 10.6963 54.155 12.1426V16.1943C54.155 16.2826 54.0887 16.3599 54.0004 16.3599H53.1724C53.0841 16.3599 53.0068 16.2826 53.0068 16.1943V11.9991C53.0068 11.1821 52.3444 10.5197 51.5274 10.5197C50.7105 10.5197 50.0481 11.1821 50.0481 11.9991V16.1943C50.0481 16.2826 49.9708 16.3599 49.8825 16.3599H49.0214C48.933 16.3599 48.8558 16.2826 48.8558 16.1943V9.68062C48.8558 9.5923 48.933 9.51502 49.0214 9.51502H49.8825C49.9708 9.51502 50.0481 9.5923 50.0481 9.68062V9.96766C50.4676 9.68062 50.9754 9.51502 51.5274 9.51502ZM59.0312 16.3599C57.3752 16.3599 56.0283 15.013 56.0283 13.357V12.5179C56.0283 10.8619 57.3752 9.51502 59.0312 9.51502C60.6872 9.51502 62.0341 10.8619 62.0341 12.5179V13.357C62.0341 15.013 60.6872 16.3599 59.0312 16.3599ZM57.1765 12.5179V13.357C57.1765 14.3837 58.0045 15.2117 59.0312 15.2117C60.0469 15.2117 60.8859 14.3837 60.8859 13.357V12.5179C60.8859 11.4912 60.0469 10.6632 59.0312 10.6632C58.0045 10.6632 57.1765 11.4912 57.1765 12.5179ZM66.5339 9.50398C67.9801 9.50398 69.1614 10.6853 69.1614 12.1426V16.1943C69.1614 16.2826 69.0841 16.3599 68.9958 16.3599H68.1678C68.0795 16.3599 68.0133 16.2826 68.0133 16.1943V11.988C68.0133 11.1821 67.3509 10.5087 66.5339 10.5087C65.7169 10.5087 65.0545 11.1821 65.0545 11.988V16.1943C65.0545 16.2826 64.9883 16.3599 64.9 16.3599H64.0609C63.9726 16.3599 63.9064 16.2826 63.9064 16.1943V5.48542C63.9064 5.3971 63.9726 5.31982 64.0609 5.31982H64.9C64.9883 5.31982 65.0545 5.3971 65.0545 5.48542V9.96766C65.4741 9.68062 65.9819 9.50398 66.5339 9.50398ZM77.7261 15.2117C77.8144 15.2117 77.8806 15.2779 77.8806 15.3552V16.2163C77.8806 16.2936 77.8144 16.3599 77.7261 16.3599C77.1078 16.3599 76.5117 16.0287 76.2136 15.5098C76.2025 15.4987 76.1915 15.4767 76.1805 15.4546C75.6395 16.0176 74.8777 16.3599 74.0387 16.3599C72.3827 16.3599 71.0358 15.013 71.0358 13.357V12.5179C71.0358 10.8619 72.3827 9.51502 74.0387 9.51502C74.7784 9.51502 75.4629 9.79102 75.9817 10.2327V9.68062C75.9817 9.5923 76.059 9.51502 76.1473 9.51502H76.9753C77.0637 9.51502 77.1299 9.5923 77.1299 9.68062V14.5714C77.1299 14.9357 77.3949 15.2117 77.7261 15.2117ZM75.8934 13.357V12.5179C75.8934 11.4912 75.0544 10.6632 74.0387 10.6632C73.012 10.6632 72.184 11.4912 72.184 12.5179V13.357C72.184 14.3837 73.012 15.2117 74.0387 15.2117C75.0544 15.2117 75.8934 14.3837 75.8934 13.357ZM82.8129 9.51502C82.9123 9.51502 82.9785 9.5923 82.9785 9.68062V10.5307C82.9785 10.6191 82.9123 10.6963 82.8129 10.6963C81.8083 10.6963 80.9913 11.4802 80.9361 12.4738V16.1943C80.9361 16.2826 80.8588 16.3599 80.7705 16.3599H79.9204C79.8321 16.3599 79.7548 16.2826 79.7548 16.1943V9.68062C79.7548 9.5923 79.8321 9.51502 79.9204 9.51502H80.7705C80.8588 9.51502 80.9361 9.5923 80.9361 9.68062V10.1664C81.455 9.7579 82.1063 9.51502 82.8129 9.51502ZM91.3212 15.2117C91.4095 15.2117 91.4758 15.2779 91.4758 15.3552V16.2163C91.4758 16.2936 91.4095 16.3599 91.3212 16.3599C90.703 16.3599 90.1068 16.0287 89.8087 15.5098C89.7977 15.4987 89.7866 15.4767 89.7756 15.4546C89.2346 16.0176 88.4729 16.3599 87.6338 16.3599C85.9778 16.3599 84.631 15.013 84.631 13.357V12.5179C84.631 10.8619 85.9778 9.51502 87.6338 9.51502C88.3735 9.51502 89.058 9.79102 89.5769 10.2327V9.68062C89.5769 9.5923 89.6542 9.51502 89.7425 9.51502H90.5705C90.6588 9.51502 90.725 9.5923 90.725 9.68062V14.5714C90.725 14.9357 90.99 15.2117 91.3212 15.2117ZM89.4886 13.357V12.5179C89.4886 11.4912 88.6495 10.6632 87.6338 10.6632C86.6071 10.6632 85.7791 11.4912 85.7791 12.5179V13.357C85.7791 14.3837 86.6071 15.2117 87.6338 15.2117C88.6495 15.2117 89.4886 14.3837 89.4886 13.357ZM105.028 7.42846L101.506 10.0008C101.451 10.0339 101.385 10.0339 101.33 10.0008L97.8082 7.42846V16.2053C97.8082 16.2936 97.7422 16.3599 97.6532 16.3599H96.8032C96.7262 16.3599 96.6602 16.2936 96.6602 16.2053V5.47438C96.6602 5.41918 96.6932 5.36398 96.7372 5.3419C96.7812 5.31982 96.8472 5.31982 96.8912 5.35294L101.418 8.64286L105.944 5.35294C105.988 5.31982 106.044 5.31982 106.099 5.3419C106.143 5.36398 106.176 5.41918 106.176 5.47438V16.2053C106.176 16.2936 106.11 16.3599 106.033 16.3599H105.171C105.094 16.3599 105.028 16.2936 105.028 16.2053V7.42846ZM114.23 15.2117C114.318 15.2117 114.385 15.2779 114.385 15.3552V16.2163C114.385 16.2936 114.318 16.3599 114.23 16.3599C113.667 16.3599 113.126 16.0839 112.806 15.6533C112.331 16.0949 111.702 16.3599 111.006 16.3599C109.56 16.3599 108.379 15.1786 108.379 13.7323V9.68062C108.379 9.5923 108.445 9.51502 108.533 9.51502H109.361C109.45 9.51502 109.527 9.5923 109.527 9.68062V13.8759C109.527 14.6928 110.189 15.3552 111.006 15.3552C111.779 15.3552 112.408 14.7701 112.475 14.0194V9.68062C112.475 9.5923 112.552 9.51502 112.64 9.51502H113.468C113.557 9.51502 113.634 9.5923 113.634 9.68062L113.645 13.0037V13.7323C113.645 13.7986 113.634 13.8538 113.634 13.92V14.5714C113.634 14.9247 113.888 15.2117 114.23 15.2117ZM117.322 14.1519L117.333 14.3285C117.333 14.7922 117.731 15.1786 118.195 15.1786C118.702 15.1786 119.078 14.8363 119.078 14.3285C119.078 13.92 118.802 13.6771 118.316 13.2797L117.565 12.6835C117.002 12.1978 116.461 11.7672 116.461 10.8951C116.461 9.91246 117.212 9.17278 118.195 9.17278C119.155 9.17278 119.928 9.94558 119.928 10.8951V11.0717C119.928 11.16 119.851 11.2373 119.762 11.2373H118.923C118.824 11.2373 118.758 11.16 118.758 11.0717V10.9282C118.758 10.608 118.493 10.3651 118.172 10.3651C117.863 10.3651 117.631 10.5749 117.631 10.9282C117.631 11.2373 117.852 11.4139 118.338 11.8003L119.089 12.3634C119.685 12.8712 120.248 13.368 120.248 14.3175C120.248 15.4767 119.365 16.3599 118.195 16.3599C117.068 16.3599 116.152 15.4435 116.152 14.3175V14.1519C116.152 14.0635 116.218 13.9863 116.318 13.9863H117.157C117.245 13.9863 117.322 14.0635 117.322 14.1519ZM123.718 9.50398C123.795 9.50398 123.861 9.43774 123.861 9.34942V8.47726C123.861 8.39998 123.795 8.3227 123.718 8.3227H122.846C122.757 8.3227 122.691 8.39998 122.691 8.47726V9.34942C122.691 9.43774 122.757 9.50398 122.846 9.50398H123.718ZM123.861 16.1943C123.861 16.2826 123.795 16.3599 123.707 16.3599H122.846C122.757 16.3599 122.68 16.2826 122.68 16.1943V10.8288C122.68 10.7405 122.757 10.6743 122.846 10.6743H123.707C123.795 10.6743 123.861 10.7405 123.861 10.8288V16.1943ZM130.647 11.7451C130.36 11.1048 129.709 10.6632 128.969 10.6632C127.943 10.6632 127.115 11.4912 127.115 12.5179V13.357C127.115 14.3837 127.943 15.2117 128.969 15.2117C129.709 15.2117 130.36 14.7701 130.647 14.1298C130.691 14.0635 130.769 14.0304 130.846 14.0635L131.619 14.4389C131.696 14.472 131.718 14.5603 131.685 14.6376C131.199 15.6533 130.162 16.3599 128.969 16.3599C127.313 16.3599 125.955 15.013 125.955 13.357V12.5179C125.955 10.8619 127.313 9.51502 128.969 9.51502C130.162 9.51502 131.199 10.2216 131.685 11.2373C131.718 11.3146 131.696 11.4029 131.619 11.436L130.846 11.8114C130.769 11.8445 130.691 11.8114 130.647 11.7451ZM139.7 10.0671C140.782 11.0386 141.897 12.0543 141.897 13.5888C141.897 15.1675 140.693 16.3599 139.115 16.3599C137.58 16.3599 136.332 15.1234 136.332 13.5888C136.332 13.5115 136.399 13.4453 136.476 13.4453H137.348C137.425 13.4453 137.492 13.5115 137.492 13.5888C137.492 14.4831 138.22 15.2007 139.115 15.2007C140.053 15.2007 140.726 14.5272 140.726 13.5888C140.726 12.5621 139.854 11.7672 138.916 10.9282C137.889 9.98974 136.818 9.01822 136.818 7.6051C136.818 6.30238 137.801 5.31982 139.115 5.31982C140.373 5.31982 141.411 6.34654 141.411 7.6051C141.411 7.68238 141.334 7.74862 141.256 7.74862H140.395C140.307 7.74862 140.241 7.68238 140.241 7.6051C140.241 6.98686 139.733 6.47902 139.115 6.47902C138.441 6.47902 137.988 6.93166 137.988 7.6051C137.988 8.51038 138.816 9.2611 139.7 10.0671ZM147.908 11.7451C147.621 11.1048 146.97 10.6632 146.23 10.6632C145.203 10.6632 144.375 11.4912 144.375 12.5179V13.357C144.375 14.3837 145.203 15.2117 146.23 15.2117C146.97 15.2117 147.621 14.7701 147.908 14.1298C147.952 14.0635 148.03 14.0304 148.107 14.0635L148.88 14.4389C148.957 14.472 148.979 14.5603 148.946 14.6376C148.46 15.6533 147.422 16.3599 146.23 16.3599C144.574 16.3599 143.216 15.013 143.216 13.357V12.5179C143.216 10.8619 144.574 9.51502 146.23 9.51502C147.422 9.51502 148.46 10.2216 148.946 11.2373C148.979 11.3146 148.957 11.4029 148.88 11.436L148.107 11.8114C148.03 11.8445 147.952 11.8114 147.908 11.7451ZM153.463 9.50398C154.909 9.50398 156.09 10.6853 156.09 12.1426V16.1943C156.09 16.2826 156.013 16.3599 155.925 16.3599H155.097C155.009 16.3599 154.942 16.2826 154.942 16.1943V11.988C154.942 11.1821 154.28 10.5087 153.463 10.5087C152.646 10.5087 151.984 11.1821 151.984 11.988V16.1943C151.984 16.2826 151.917 16.3599 151.829 16.3599H150.99C150.902 16.3599 150.835 16.2826 150.835 16.1943V5.48542C150.835 5.3971 150.902 5.31982 150.99 5.31982H151.829C151.917 5.31982 151.984 5.3971 151.984 5.48542V9.96766C152.403 9.68062 152.911 9.50398 153.463 9.50398ZM160.968 16.3599C159.312 16.3599 157.965 15.013 157.965 13.357V12.5179C157.965 10.8619 159.312 9.51502 160.968 9.51502C162.624 9.51502 163.971 10.8619 163.971 12.5179V13.357C163.971 15.013 162.624 16.3599 160.968 16.3599ZM159.113 12.5179V13.357C159.113 14.3837 159.941 15.2117 160.968 15.2117C161.983 15.2117 162.822 14.3837 162.822 13.357V12.5179C162.822 11.4912 161.983 10.6632 160.968 10.6632C159.941 10.6632 159.113 11.4912 159.113 12.5179ZM168.515 16.3599C166.859 16.3599 165.512 15.013 165.512 13.357V12.5179C165.512 10.8619 166.859 9.51502 168.515 9.51502C170.171 9.51502 171.517 10.8619 171.517 12.5179V13.357C171.517 15.013 170.171 16.3599 168.515 16.3599ZM166.66 12.5179V13.357C166.66 14.3837 167.488 15.2117 168.515 15.2117C169.53 15.2117 170.369 14.3837 170.369 13.357V12.5179C170.369 11.4912 169.53 10.6632 168.515 10.6632C167.488 10.6632 166.66 11.4912 166.66 12.5179ZM174.56 15.1786H174.969C175.057 15.1786 175.134 15.2559 175.134 15.3442V16.1943C175.134 16.2826 175.057 16.3599 174.969 16.3599H173.544C173.456 16.3599 173.39 16.2826 173.39 16.1943V5.48542C173.39 5.3971 173.456 5.31982 173.544 5.31982H174.405C174.494 5.31982 174.56 5.3971 174.56 5.48542V15.1786Z" fill="black"/>
</g>
</g>
<defs>
<filter id="filter0_d_2423_290" x="-4" y="0" width="194.738" height="32.5" filterUnits="userSpaceOnUse" color-interpolation-filters="sRGB">
<feFlood flood-opacity="0" result="BackgroundImageFix"/>
<feColorMatrix in="SourceAlpha" type="matrix" values="0 0 0 0 0 0 0 0 0 0 0 0 0 0 0 0 0 0 127 0" result="hardAlpha"/>
<feOffset dy="4"/>
<feGaussianBlur stdDeviation="2"/>
<feComposite in2="hardAlpha" operator="out"/>
<feColorMatrix type="matrix" values="0 0 0 0 0 0 0 0 0 0 0 0 0 0 0 0 0 0 0.25 0"/>
<feBlend mode="normal" in2="BackgroundImageFix" result="effect1_dropShadow_2423_290"/>
<feBlend mode="normal" in="SourceGraphic" in2="effect1_dropShadow_2423_290" result="shape"/>
</filter>
<clipPath id="clip0_2423_290">
<rect width="186.738" height="24.5" fill="white"/>
</clipPath>
</defs>
</svg>
